<svg xmlns="http://www.w3.org/2000/svg" xmlns:xlink="http://www.w3.org/1999/xlink" width="500" zoomAndPan="magnify" viewBox="0 0 375 374.999991" height="500" preserveAspectRatio="xMidYMid meet" version="1.0"><defs><g/></defs><g fill="#01585c" fill-opacity="1"><g transform="translate(180.409797, 275.221256)"><g><path d="M 57.078125 0 L 15.453125 -118.171875 C 14.117188 -121.921875 12.539062 -124.492188 10.71875 -125.890625 C 8.90625 -127.285156 6.117188 -127.984375 2.359375 -127.984375 L 0 -127.984375 L 0 -129.796875 L 50 -129.796875 L 50 -127.984375 L 45.625 -127.984375 C 41.75 -127.984375 38.898438 -127.46875 37.078125 -126.4375 C 35.265625 -125.40625 34.359375 -123.617188 34.359375 -121.078125 C 34.359375 -118.648438 34.960938 -115.800781 36.171875 -112.53125 L 58.71875 -47.625 C 62.957031 -35.632812 66.226562 -25.09375 68.53125 -16 C 69.863281 -20.601562 71.4375 -25.722656 73.25 -31.359375 C 75.070312 -36.992188 76.832031 -42.414062 78.53125 -47.625 L 99.265625 -111.078125 C 99.867188 -113.015625 100.351562 -114.707031 100.71875 -116.15625 C 101.082031 -117.613281 101.265625 -118.953125 101.265625 -120.171875 C 101.265625 -123.078125 100.265625 -125.101562 98.265625 -126.25 C 96.265625 -127.40625 93.203125 -127.984375 89.078125 -127.984375 L 78.359375 -127.984375 L 78.359375 -129.796875 L 122.71875 -129.796875 L 122.71875 -127.984375 L 116.171875 -127.984375 C 112.648438 -127.984375 109.921875 -126.953125 107.984375 -124.890625 C 106.046875 -122.828125 104.226562 -119.191406 102.53125 -113.984375 L 64.90625 0 Z M 57.078125 0 "/></g></g></g><g fill="#01585c" fill-opacity="1"><g transform="translate(81.121354, 212.195153)"><g><path d="M 57.078125 0 L 15.453125 -118.171875 C 14.117188 -121.921875 12.539062 -124.492188 10.71875 -125.890625 C 8.90625 -127.285156 6.117188 -127.984375 2.359375 -127.984375 L 0 -127.984375 L 0 -129.796875 L 50 -129.796875 L 50 -127.984375 L 45.625 -127.984375 C 41.75 -127.984375 38.898438 -127.46875 37.078125 -126.4375 C 35.265625 -125.40625 34.359375 -123.617188 34.359375 -121.078125 C 34.359375 -118.648438 34.960938 -115.800781 36.171875 -112.53125 L 58.71875 -47.625 C 62.957031 -35.632812 66.226562 -25.09375 68.53125 -16 C 69.863281 -20.601562 71.4375 -25.722656 73.25 -31.359375 C 75.070312 -36.992188 76.832031 -42.414062 78.53125 -47.625 L 99.265625 -111.078125 C 99.867188 -113.015625 100.351562 -114.707031 100.71875 -116.15625 C 101.082031 -117.613281 101.265625 -118.953125 101.265625 -120.171875 C 101.265625 -123.078125 100.265625 -125.101562 98.265625 -126.25 C 96.265625 -127.40625 93.203125 -127.984375 89.078125 -127.984375 L 78.359375 -127.984375 L 78.359375 -129.796875 L 122.71875 -129.796875 L 122.71875 -127.984375 L 116.171875 -127.984375 C 112.648438 -127.984375 109.921875 -126.953125 107.984375 -124.890625 C 106.046875 -122.828125 104.226562 -119.191406 102.53125 -113.984375 L 64.90625 0 Z M 57.078125 0 "/></g></g></g></svg>