<svg xmlns="http://www.w3.org/2000/svg" xmlns:xlink="http://www.w3.org/1999/xlink" width="500" zoomAndPan="magnify" viewBox="0 0 375 374.999991" height="500" preserveAspectRatio="xMidYMid meet" version="1.0"><defs><g/><clipPath id="5a318c0dcb"><path d="M 29.066406 199.855469 L 350.742188 199.855469 L 350.742188 236.929688 L 29.066406 236.929688 Z M 29.066406 199.855469 " clip-rule="nonzero"/></clipPath></defs><g fill="#01585c" fill-opacity="1"><g transform="translate(180.409797, 275.221256)"><g><path d="M 57.078125 0 L 15.453125 -118.171875 C 14.117188 -121.921875 12.539062 -124.492188 10.71875 -125.890625 C 8.90625 -127.285156 6.117188 -127.984375 2.359375 -127.984375 L 0 -127.984375 L 0 -129.796875 L 50 -129.796875 L 50 -127.984375 L 45.625 -127.984375 C 41.75 -127.984375 38.898438 -127.46875 37.078125 -126.4375 C 35.265625 -125.40625 34.359375 -123.617188 34.359375 -121.078125 C 34.359375 -118.648438 34.960938 -115.800781 36.171875 -112.53125 L 58.71875 -47.625 C 62.957031 -35.632812 66.226562 -25.09375 68.53125 -16 C 69.863281 -20.601562 71.4375 -25.722656 73.25 -31.359375 C 75.070312 -36.992188 76.832031 -42.414062 78.53125 -47.625 L 99.265625 -111.078125 C 99.867188 -113.015625 100.351562 -114.707031 100.71875 -116.15625 C 101.082031 -117.613281 101.265625 -118.953125 101.265625 -120.171875 C 101.265625 -123.078125 100.265625 -125.101562 98.265625 -126.25 C 96.265625 -127.40625 93.203125 -127.984375 89.078125 -127.984375 L 78.359375 -127.984375 L 78.359375 -129.796875 L 122.71875 -129.796875 L 122.71875 -127.984375 L 116.171875 -127.984375 C 112.648438 -127.984375 109.921875 -126.953125 107.984375 -124.890625 C 106.046875 -122.828125 104.226562 -119.191406 102.53125 -113.984375 L 64.90625 0 Z M 57.078125 0 "/></g></g></g><g fill="#01585c" fill-opacity="1"><g transform="translate(81.121354, 212.195153)"><g><path d="M 57.078125 0 L 15.453125 -118.171875 C 14.117188 -121.921875 12.539062 -124.492188 10.71875 -125.890625 C 8.90625 -127.285156 6.117188 -127.984375 2.359375 -127.984375 L 0 -127.984375 L 0 -129.796875 L 50 -129.796875 L 50 -127.984375 L 45.625 -127.984375 C 41.75 -127.984375 38.898438 -127.46875 37.078125 -126.4375 C 35.265625 -125.40625 34.359375 -123.617188 34.359375 -121.078125 C 34.359375 -118.648438 34.960938 -115.800781 36.171875 -112.53125 L 58.71875 -47.625 C 62.957031 -35.632812 66.226562 -25.09375 68.53125 -16 C 69.863281 -20.601562 71.4375 -25.722656 73.25 -31.359375 C 75.070312 -36.992188 76.832031 -42.414062 78.53125 -47.625 L 99.265625 -111.078125 C 99.867188 -113.015625 100.351562 -114.707031 100.71875 -116.15625 C 101.082031 -117.613281 101.265625 -118.953125 101.265625 -120.171875 C 101.265625 -123.078125 100.265625 -125.101562 98.265625 -126.25 C 96.265625 -127.40625 93.203125 -127.984375 89.078125 -127.984375 L 78.359375 -127.984375 L 78.359375 -129.796875 L 122.71875 -129.796875 L 122.71875 -127.984375 L 116.171875 -127.984375 C 112.648438 -127.984375 109.921875 -126.953125 107.984375 -124.890625 C 106.046875 -122.828125 104.226562 -119.191406 102.53125 -113.984375 L 64.90625 0 Z M 57.078125 0 "/></g></g></g><g clip-path="url(#5a318c0dcb)"><path fill="#f4f4f4" d="M 29.066406 199.855469 L 350.703125 199.855469 L 350.703125 236.929688 L 29.066406 236.929688 Z M 29.066406 199.855469 " fill-opacity="1" fill-rule="nonzero"/></g><g fill="#01585c" fill-opacity="1"><g transform="translate(146.734915, 224.017118)"><g><path d="M 9.03125 -9.28125 C 9.207031 -9.28125 9.332031 -9.238281 9.40625 -9.15625 C 9.476562 -9.070312 9.515625 -8.9375 9.515625 -8.75 C 9.515625 -8.550781 9.476562 -8.410156 9.40625 -8.328125 C 9.332031 -8.253906 9.207031 -8.21875 9.03125 -8.21875 L 8.421875 -8.21875 L 5.625 -0.34375 C 5.550781 -0.15625 5.445312 -0.0234375 5.3125 0.046875 C 5.1875 0.128906 5.007812 0.171875 4.78125 0.171875 C 4.550781 0.171875 4.367188 0.128906 4.234375 0.046875 C 4.109375 -0.0351562 4.015625 -0.164062 3.953125 -0.34375 L 1.171875 -8.21875 L 0.578125 -8.21875 C 0.398438 -8.21875 0.269531 -8.253906 0.1875 -8.328125 C 0.113281 -8.410156 0.078125 -8.550781 0.078125 -8.75 C 0.078125 -8.9375 0.113281 -9.070312 0.1875 -9.15625 C 0.269531 -9.238281 0.398438 -9.28125 0.578125 -9.28125 L 3.5 -9.28125 C 3.675781 -9.28125 3.800781 -9.238281 3.875 -9.15625 C 3.945312 -9.070312 3.984375 -8.9375 3.984375 -8.75 C 3.984375 -8.550781 3.945312 -8.410156 3.875 -8.328125 C 3.800781 -8.253906 3.675781 -8.21875 3.5 -8.21875 L 2.390625 -8.21875 L 4.78125 -1.3125 L 7.203125 -8.21875 L 6.421875 -8.21875 C 6.242188 -8.21875 6.113281 -8.253906 6.03125 -8.328125 C 5.957031 -8.410156 5.921875 -8.550781 5.921875 -8.75 C 5.921875 -8.9375 5.957031 -9.070312 6.03125 -9.15625 C 6.113281 -9.238281 6.242188 -9.28125 6.421875 -9.28125 Z M 9.03125 -9.28125 "/></g></g></g><g fill="#01585c" fill-opacity="1"><g transform="translate(156.326322, 224.017118)"><g><path d="M 5.078125 -7.21875 C 5.253906 -7.21875 5.378906 -7.175781 5.453125 -7.09375 C 5.535156 -7.019531 5.578125 -6.882812 5.578125 -6.6875 L 5.578125 -1.0625 L 8.078125 -1.0625 C 8.253906 -1.0625 8.378906 -1.019531 8.453125 -0.9375 C 8.535156 -0.863281 8.578125 -0.726562 8.578125 -0.53125 C 8.578125 -0.34375 8.535156 -0.207031 8.453125 -0.125 C 8.378906 -0.0390625 8.253906 0 8.078125 0 L 1.953125 0 C 1.773438 0 1.648438 -0.0390625 1.578125 -0.125 C 1.503906 -0.207031 1.46875 -0.34375 1.46875 -0.53125 C 1.46875 -0.726562 1.503906 -0.863281 1.578125 -0.9375 C 1.648438 -1.019531 1.773438 -1.0625 1.953125 -1.0625 L 4.40625 -1.0625 L 4.40625 -6.15625 L 2.421875 -6.15625 C 2.242188 -6.15625 2.117188 -6.195312 2.046875 -6.28125 C 1.972656 -6.363281 1.9375 -6.5 1.9375 -6.6875 C 1.9375 -6.882812 1.972656 -7.019531 2.046875 -7.09375 C 2.117188 -7.175781 2.242188 -7.21875 2.421875 -7.21875 Z M 4.828125 -10.65625 C 5.117188 -10.65625 5.316406 -10.613281 5.421875 -10.53125 C 5.523438 -10.457031 5.578125 -10.328125 5.578125 -10.140625 L 5.578125 -9.125 C 5.578125 -8.9375 5.523438 -8.804688 5.421875 -8.734375 C 5.316406 -8.660156 5.117188 -8.625 4.828125 -8.625 C 4.546875 -8.625 4.351562 -8.660156 4.25 -8.734375 C 4.144531 -8.804688 4.09375 -8.9375 4.09375 -9.125 L 4.09375 -10.140625 C 4.09375 -10.328125 4.144531 -10.457031 4.25 -10.53125 C 4.351562 -10.613281 4.546875 -10.65625 4.828125 -10.65625 Z M 4.828125 -10.65625 "/></g></g></g><g fill="#01585c" fill-opacity="1"><g transform="translate(165.917729, 224.017118)"><g><path d="M 4.875 -7.390625 C 5.625 -7.390625 6.265625 -7.238281 6.796875 -6.9375 C 7.335938 -6.632812 7.75 -6.210938 8.03125 -5.671875 C 8.320312 -5.128906 8.488281 -4.507812 8.53125 -3.8125 C 8.53125 -3.632812 8.488281 -3.507812 8.40625 -3.4375 C 8.332031 -3.363281 8.207031 -3.328125 8.03125 -3.328125 L 2.375 -3.328125 C 2.414062 -2.546875 2.644531 -1.957031 3.0625 -1.5625 C 3.488281 -1.164062 4.09375 -0.96875 4.875 -0.96875 C 5.351562 -0.96875 5.828125 -1.023438 6.296875 -1.140625 C 6.765625 -1.265625 7.175781 -1.429688 7.53125 -1.640625 C 7.613281 -1.679688 7.691406 -1.703125 7.765625 -1.703125 C 7.953125 -1.703125 8.101562 -1.566406 8.21875 -1.296875 C 8.257812 -1.179688 8.28125 -1.082031 8.28125 -1 C 8.28125 -0.789062 8.164062 -0.628906 7.9375 -0.515625 C 7.539062 -0.304688 7.066406 -0.140625 6.515625 -0.015625 C 5.972656 0.109375 5.425781 0.171875 4.875 0.171875 C 4.082031 0.171875 3.40625 0.0195312 2.84375 -0.28125 C 2.289062 -0.582031 1.867188 -1.015625 1.578125 -1.578125 C 1.285156 -2.148438 1.140625 -2.828125 1.140625 -3.609375 C 1.140625 -4.359375 1.296875 -5.019531 1.609375 -5.59375 C 1.929688 -6.164062 2.375 -6.609375 2.9375 -6.921875 C 3.5 -7.234375 4.144531 -7.390625 4.875 -7.390625 Z M 4.875 -6.265625 C 4.226562 -6.265625 3.695312 -6.097656 3.28125 -5.765625 C 2.863281 -5.441406 2.585938 -4.992188 2.453125 -4.421875 L 7.234375 -4.421875 C 7.117188 -5.015625 6.863281 -5.46875 6.46875 -5.78125 C 6.082031 -6.101562 5.550781 -6.265625 4.875 -6.265625 Z M 4.875 -6.265625 "/></g></g></g><g fill="#01585c" fill-opacity="1"><g transform="translate(175.509136, 224.017118)"><g><path d="M 9.1875 -7.21875 C 9.363281 -7.21875 9.488281 -7.175781 9.5625 -7.09375 C 9.632812 -7.019531 9.671875 -6.882812 9.671875 -6.6875 C 9.671875 -6.5 9.632812 -6.363281 9.5625 -6.28125 C 9.488281 -6.195312 9.363281 -6.15625 9.1875 -6.15625 L 9 -6.15625 L 7.453125 -0.34375 C 7.398438 -0.15625 7.320312 -0.0234375 7.21875 0.046875 C 7.125 0.128906 6.976562 0.171875 6.78125 0.171875 C 6.550781 0.171875 6.375 0.128906 6.25 0.046875 C 6.125 -0.0351562 6.03125 -0.164062 5.96875 -0.34375 L 4.765625 -3.734375 L 3.5625 -0.34375 C 3.5 -0.164062 3.398438 -0.0351562 3.265625 0.046875 C 3.128906 0.128906 2.953125 0.171875 2.734375 0.171875 C 2.535156 0.171875 2.382812 0.128906 2.28125 0.046875 C 2.1875 -0.0234375 2.113281 -0.15625 2.0625 -0.34375 L 0.5625 -6.15625 L 0.421875 -6.15625 C 0.242188 -6.15625 0.113281 -6.195312 0.03125 -6.28125 C -0.0390625 -6.363281 -0.078125 -6.5 -0.078125 -6.6875 C -0.078125 -6.882812 -0.0390625 -7.019531 0.03125 -7.09375 C 0.113281 -7.175781 0.242188 -7.21875 0.421875 -7.21875 L 2.71875 -7.21875 C 2.894531 -7.21875 3.019531 -7.175781 3.09375 -7.09375 C 3.164062 -7.019531 3.203125 -6.882812 3.203125 -6.6875 C 3.203125 -6.5 3.164062 -6.363281 3.09375 -6.28125 C 3.019531 -6.195312 2.894531 -6.15625 2.71875 -6.15625 L 1.75 -6.15625 L 2.875 -1.609375 L 4.1875 -5.234375 C 4.21875 -5.347656 4.28125 -5.4375 4.375 -5.5 C 4.476562 -5.570312 4.613281 -5.609375 4.78125 -5.609375 C 5.101562 -5.609375 5.300781 -5.503906 5.375 -5.296875 L 6.671875 -1.609375 L 7.828125 -6.15625 L 7.046875 -6.15625 C 6.867188 -6.15625 6.738281 -6.195312 6.65625 -6.28125 C 6.582031 -6.363281 6.546875 -6.5 6.546875 -6.6875 C 6.546875 -6.882812 6.582031 -7.019531 6.65625 -7.09375 C 6.738281 -7.175781 6.867188 -7.21875 7.046875 -7.21875 Z M 9.1875 -7.21875 "/></g></g></g><g fill="#01585c" fill-opacity="1"><g transform="translate(185.100543, 224.017118)"><g/></g></g><g fill="#01585c" fill-opacity="1"><g transform="translate(194.691951, 224.017118)"><g><path d="M 9.03125 -9.28125 C 9.207031 -9.28125 9.332031 -9.238281 9.40625 -9.15625 C 9.476562 -9.070312 9.515625 -8.9375 9.515625 -8.75 C 9.515625 -8.550781 9.476562 -8.410156 9.40625 -8.328125 C 9.332031 -8.253906 9.207031 -8.21875 9.03125 -8.21875 L 8.421875 -8.21875 L 5.625 -0.34375 C 5.550781 -0.15625 5.445312 -0.0234375 5.3125 0.046875 C 5.1875 0.128906 5.007812 0.171875 4.78125 0.171875 C 4.550781 0.171875 4.367188 0.128906 4.234375 0.046875 C 4.109375 -0.0351562 4.015625 -0.164062 3.953125 -0.34375 L 1.171875 -8.21875 L 0.578125 -8.21875 C 0.398438 -8.21875 0.269531 -8.253906 0.1875 -8.328125 C 0.113281 -8.410156 0.078125 -8.550781 0.078125 -8.75 C 0.078125 -8.9375 0.113281 -9.070312 0.1875 -9.15625 C 0.269531 -9.238281 0.398438 -9.28125 0.578125 -9.28125 L 3.5 -9.28125 C 3.675781 -9.28125 3.800781 -9.238281 3.875 -9.15625 C 3.945312 -9.070312 3.984375 -8.9375 3.984375 -8.75 C 3.984375 -8.550781 3.945312 -8.410156 3.875 -8.328125 C 3.800781 -8.253906 3.675781 -8.21875 3.5 -8.21875 L 2.390625 -8.21875 L 4.78125 -1.3125 L 7.203125 -8.21875 L 6.421875 -8.21875 C 6.242188 -8.21875 6.113281 -8.253906 6.03125 -8.328125 C 5.957031 -8.410156 5.921875 -8.550781 5.921875 -8.75 C 5.921875 -8.9375 5.957031 -9.070312 6.03125 -9.15625 C 6.113281 -9.238281 6.242188 -9.28125 6.421875 -9.28125 Z M 9.03125 -9.28125 "/></g></g></g><g fill="#01585c" fill-opacity="1"><g transform="translate(204.283358, 224.017118)"><g><path d="M 5.078125 -7.21875 C 5.253906 -7.21875 5.378906 -7.175781 5.453125 -7.09375 C 5.535156 -7.019531 5.578125 -6.882812 5.578125 -6.6875 L 5.578125 -1.0625 L 8.078125 -1.0625 C 8.253906 -1.0625 8.378906 -1.019531 8.453125 -0.9375 C 8.535156 -0.863281 8.578125 -0.726562 8.578125 -0.53125 C 8.578125 -0.34375 8.535156 -0.207031 8.453125 -0.125 C 8.378906 -0.0390625 8.253906 0 8.078125 0 L 1.953125 0 C 1.773438 0 1.648438 -0.0390625 1.578125 -0.125 C 1.503906 -0.207031 1.46875 -0.34375 1.46875 -0.53125 C 1.46875 -0.726562 1.503906 -0.863281 1.578125 -0.9375 C 1.648438 -1.019531 1.773438 -1.0625 1.953125 -1.0625 L 4.40625 -1.0625 L 4.40625 -6.15625 L 2.421875 -6.15625 C 2.242188 -6.15625 2.117188 -6.195312 2.046875 -6.28125 C 1.972656 -6.363281 1.9375 -6.5 1.9375 -6.6875 C 1.9375 -6.882812 1.972656 -7.019531 2.046875 -7.09375 C 2.117188 -7.175781 2.242188 -7.21875 2.421875 -7.21875 Z M 4.828125 -10.65625 C 5.117188 -10.65625 5.316406 -10.613281 5.421875 -10.53125 C 5.523438 -10.457031 5.578125 -10.328125 5.578125 -10.140625 L 5.578125 -9.125 C 5.578125 -8.9375 5.523438 -8.804688 5.421875 -8.734375 C 5.316406 -8.660156 5.117188 -8.625 4.828125 -8.625 C 4.546875 -8.625 4.351562 -8.660156 4.25 -8.734375 C 4.144531 -8.804688 4.09375 -8.9375 4.09375 -9.125 L 4.09375 -10.140625 C 4.09375 -10.328125 4.144531 -10.457031 4.25 -10.53125 C 4.351562 -10.613281 4.546875 -10.65625 4.828125 -10.65625 Z M 4.828125 -10.65625 "/></g></g></g><g fill="#01585c" fill-opacity="1"><g transform="translate(213.874765, 224.017118)"><g><path d="M 7.1875 -7.390625 C 7.59375 -7.390625 7.972656 -7.285156 8.328125 -7.078125 C 8.535156 -6.953125 8.640625 -6.789062 8.640625 -6.59375 C 8.640625 -6.5 8.617188 -6.390625 8.578125 -6.265625 C 8.460938 -5.972656 8.3125 -5.828125 8.125 -5.828125 C 8.039062 -5.828125 7.96875 -5.847656 7.90625 -5.890625 C 7.644531 -6.023438 7.367188 -6.09375 7.078125 -6.09375 C 6.609375 -6.09375 6.132812 -5.929688 5.65625 -5.609375 C 5.1875 -5.285156 4.800781 -4.851562 4.5 -4.3125 C 4.195312 -3.769531 4.046875 -3.191406 4.046875 -2.578125 L 4.046875 -1.0625 L 6.671875 -1.0625 C 6.847656 -1.0625 6.972656 -1.019531 7.046875 -0.9375 C 7.128906 -0.863281 7.171875 -0.726562 7.171875 -0.53125 C 7.171875 -0.34375 7.128906 -0.207031 7.046875 -0.125 C 6.972656 -0.0390625 6.847656 0 6.671875 0 L 1.640625 0 C 1.460938 0 1.335938 -0.0390625 1.265625 -0.125 C 1.191406 -0.207031 1.15625 -0.34375 1.15625 -0.53125 C 1.15625 -0.726562 1.191406 -0.863281 1.265625 -0.9375 C 1.335938 -1.019531 1.460938 -1.0625 1.640625 -1.0625 L 2.875 -1.0625 L 2.875 -6.15625 L 1.875 -6.15625 C 1.695312 -6.15625 1.570312 -6.195312 1.5 -6.28125 C 1.425781 -6.363281 1.390625 -6.5 1.390625 -6.6875 C 1.390625 -6.882812 1.425781 -7.019531 1.5 -7.09375 C 1.570312 -7.175781 1.695312 -7.21875 1.875 -7.21875 L 3.46875 -7.21875 C 3.644531 -7.21875 3.769531 -7.175781 3.84375 -7.09375 C 3.925781 -7.019531 3.96875 -6.882812 3.96875 -6.6875 L 3.96875 -5.109375 C 4.21875 -5.566406 4.519531 -5.96875 4.875 -6.3125 C 5.226562 -6.65625 5.601562 -6.921875 6 -7.109375 C 6.40625 -7.296875 6.800781 -7.390625 7.1875 -7.390625 Z M 7.1875 -7.390625 "/></g></g></g><g fill="#01585c" fill-opacity="1"><g transform="translate(223.466172, 224.017118)"><g><path d="M 3.578125 -9.453125 C 3.796875 -9.453125 3.945312 -9.410156 4.03125 -9.328125 C 4.125 -9.253906 4.171875 -9.125 4.171875 -8.9375 L 4.171875 -6.59375 L 7.375 -6.59375 C 7.550781 -6.59375 7.675781 -6.550781 7.75 -6.46875 C 7.832031 -6.394531 7.875 -6.257812 7.875 -6.0625 C 7.875 -5.875 7.832031 -5.738281 7.75 -5.65625 C 7.675781 -5.570312 7.550781 -5.53125 7.375 -5.53125 L 4.171875 -5.53125 L 4.171875 -2.6875 C 4.171875 -2.09375 4.269531 -1.65625 4.46875 -1.375 C 4.675781 -1.101562 5.035156 -0.96875 5.546875 -0.96875 C 5.898438 -0.96875 6.269531 -1.035156 6.65625 -1.171875 C 7.039062 -1.316406 7.410156 -1.507812 7.765625 -1.75 C 7.835938 -1.800781 7.921875 -1.828125 8.015625 -1.828125 C 8.191406 -1.828125 8.34375 -1.707031 8.46875 -1.46875 C 8.53125 -1.332031 8.5625 -1.210938 8.5625 -1.109375 C 8.5625 -0.941406 8.476562 -0.804688 8.3125 -0.703125 C 7.90625 -0.453125 7.453125 -0.242188 6.953125 -0.078125 C 6.453125 0.0859375 5.984375 0.171875 5.546875 0.171875 C 4.660156 0.171875 4.015625 -0.0546875 3.609375 -0.515625 C 3.203125 -0.984375 3 -1.675781 3 -2.59375 L 3 -5.53125 L 1.40625 -5.53125 C 1.226562 -5.53125 1.101562 -5.570312 1.03125 -5.65625 C 0.957031 -5.738281 0.921875 -5.875 0.921875 -6.0625 C 0.921875 -6.257812 0.957031 -6.394531 1.03125 -6.46875 C 1.101562 -6.550781 1.226562 -6.59375 1.40625 -6.59375 L 3 -6.59375 L 3 -8.9375 C 3 -9.125 3.039062 -9.253906 3.125 -9.328125 C 3.21875 -9.410156 3.367188 -9.453125 3.578125 -9.453125 Z M 3.578125 -9.453125 "/></g></g></g></svg>