<svg xmlns="http://www.w3.org/2000/svg" xmlns:xlink="http://www.w3.org/1999/xlink" width="380" zoomAndPan="magnify" viewBox="0 0 285 60" height="80" preserveAspectRatio="xMidYMid meet" version="1.0"><defs><g/></defs><g fill="#01585c" fill-opacity="1"><g transform="translate(29.504275, 44.792857)"><g><path d="M 9.140625 0 L 2.46875 -18.90625 C 2.257812 -19.507812 2.007812 -19.921875 1.71875 -20.140625 C 1.425781 -20.367188 0.976562 -20.484375 0.375 -20.484375 L 0 -20.484375 L 0 -20.765625 L 8 -20.765625 L 8 -20.484375 L 7.296875 -20.484375 C 6.679688 -20.484375 6.226562 -20.398438 5.9375 -20.234375 C 5.644531 -20.066406 5.5 -19.78125 5.5 -19.375 C 5.5 -18.988281 5.597656 -18.535156 5.796875 -18.015625 L 9.390625 -7.625 C 10.078125 -5.707031 10.601562 -4.019531 10.96875 -2.5625 C 11.175781 -3.300781 11.425781 -4.117188 11.71875 -5.015625 C 12.007812 -5.921875 12.289062 -6.789062 12.5625 -7.625 L 15.890625 -17.78125 C 15.984375 -18.082031 16.054688 -18.347656 16.109375 -18.578125 C 16.171875 -18.816406 16.203125 -19.035156 16.203125 -19.234375 C 16.203125 -19.691406 16.039062 -20.015625 15.71875 -20.203125 C 15.40625 -20.390625 14.914062 -20.484375 14.25 -20.484375 L 12.546875 -20.484375 L 12.546875 -20.765625 L 19.640625 -20.765625 L 19.640625 -20.484375 L 18.59375 -20.484375 C 18.03125 -20.484375 17.59375 -20.316406 17.28125 -19.984375 C 16.96875 -19.660156 16.675781 -19.078125 16.40625 -18.234375 L 10.390625 0 Z M 9.140625 0 "/></g></g></g><g fill="#01585c" fill-opacity="1"><g transform="translate(13.618124, 34.70868)"><g><path d="M 9.140625 0 L 2.46875 -18.90625 C 2.257812 -19.507812 2.007812 -19.921875 1.71875 -20.140625 C 1.425781 -20.367188 0.976562 -20.484375 0.375 -20.484375 L 0 -20.484375 L 0 -20.765625 L 8 -20.765625 L 8 -20.484375 L 7.296875 -20.484375 C 6.679688 -20.484375 6.226562 -20.398438 5.9375 -20.234375 C 5.644531 -20.066406 5.5 -19.78125 5.5 -19.375 C 5.5 -18.988281 5.597656 -18.535156 5.796875 -18.015625 L 9.390625 -7.625 C 10.078125 -5.707031 10.601562 -4.019531 10.96875 -2.5625 C 11.175781 -3.300781 11.425781 -4.117188 11.71875 -5.015625 C 12.007812 -5.921875 12.289062 -6.789062 12.5625 -7.625 L 15.890625 -17.78125 C 15.984375 -18.082031 16.054688 -18.347656 16.109375 -18.578125 C 16.171875 -18.816406 16.203125 -19.035156 16.203125 -19.234375 C 16.203125 -19.691406 16.039062 -20.015625 15.71875 -20.203125 C 15.40625 -20.390625 14.914062 -20.484375 14.25 -20.484375 L 12.546875 -20.484375 L 12.546875 -20.765625 L 19.640625 -20.765625 L 19.640625 -20.484375 L 18.59375 -20.484375 C 18.03125 -20.484375 17.59375 -20.316406 17.28125 -19.984375 C 16.96875 -19.660156 16.675781 -19.078125 16.40625 -18.234375 L 10.390625 0 Z M 9.140625 0 "/></g></g></g><g fill="#01585c" fill-opacity="1"><g transform="translate(68.940693, 38.25)"><g><path d="M 8.453125 -2.765625 L 13.65625 -19.28125 L 16.109375 -19.28125 L 9.65625 0 L 7.140625 0 L 0.6875 -19.28125 L 3.296875 -19.28125 Z M 8.453125 -2.765625 "/></g></g></g><g fill="#01585c" fill-opacity="1"><g transform="translate(85.738399, 38.25)"><g><path d="M 10.28125 -14.734375 L 10.28125 -1.859375 L 14.4375 -1.859375 L 14.4375 0 L 3.375 0 L 3.375 -1.859375 L 7.921875 -1.859375 L 7.921875 -12.875 L 3.515625 -12.875 L 3.515625 -14.734375 Z M 8.40625 -21.640625 C 8.925781 -21.640625 9.34375 -21.476562 9.65625 -21.15625 C 9.96875 -20.84375 10.125 -20.457031 10.125 -20 C 10.125 -19.53125 9.96875 -19.132812 9.65625 -18.8125 C 9.34375 -18.488281 8.925781 -18.328125 8.40625 -18.328125 C 7.90625 -18.328125 7.492188 -18.488281 7.171875 -18.8125 C 6.859375 -19.132812 6.703125 -19.53125 6.703125 -20 C 6.703125 -20.457031 6.859375 -20.84375 7.171875 -21.15625 C 7.492188 -21.476562 7.90625 -21.640625 8.40625 -21.640625 Z M 8.40625 -21.640625 "/></g></g></g><g fill="#01585c" fill-opacity="1"><g transform="translate(102.536105, 38.25)"><g><path d="M 4.65625 -6.53125 C 4.707031 -5.394531 4.925781 -4.460938 5.3125 -3.734375 C 5.707031 -3.015625 6.226562 -2.484375 6.875 -2.140625 C 7.519531 -1.804688 8.21875 -1.640625 8.96875 -1.640625 C 9.726562 -1.640625 10.410156 -1.75 11.015625 -1.96875 C 11.628906 -2.195312 12.257812 -2.53125 12.90625 -2.96875 L 14.015625 -1.40625 C 13.328125 -0.875 12.539062 -0.453125 11.65625 -0.140625 C 10.769531 0.171875 9.867188 0.328125 8.953125 0.328125 C 7.515625 0.328125 6.289062 0.00390625 5.28125 -0.640625 C 4.28125 -1.285156 3.515625 -2.179688 2.984375 -3.328125 C 2.460938 -4.484375 2.203125 -5.820312 2.203125 -7.34375 C 2.203125 -8.84375 2.46875 -10.171875 3 -11.328125 C 3.53125 -12.484375 4.273438 -13.390625 5.234375 -14.046875 C 6.191406 -14.710938 7.328125 -15.046875 8.640625 -15.046875 C 9.878906 -15.046875 10.945312 -14.753906 11.84375 -14.171875 C 12.738281 -13.585938 13.425781 -12.753906 13.90625 -11.671875 C 14.382812 -10.597656 14.625 -9.316406 14.625 -7.828125 C 14.625 -7.578125 14.617188 -7.34375 14.609375 -7.125 C 14.609375 -6.90625 14.597656 -6.707031 14.578125 -6.53125 Z M 8.671875 -13.125 C 7.578125 -13.125 6.660156 -12.734375 5.921875 -11.953125 C 5.191406 -11.179688 4.773438 -9.984375 4.671875 -8.359375 L 12.359375 -8.359375 C 12.328125 -9.929688 11.976562 -11.117188 11.3125 -11.921875 C 10.65625 -12.722656 9.773438 -13.125 8.671875 -13.125 Z M 8.671875 -13.125 "/></g></g></g><g fill="#01585c" fill-opacity="1"><g transform="translate(119.333811, 38.25)"><g><path d="M 13.734375 0 L 10.40625 0 L 8.5 -10.828125 L 6.421875 0 L 3.171875 0 L 0.484375 -14.734375 L 2.890625 -14.734375 L 4.78125 -1.453125 L 7.125 -12.859375 L 9.90625 -12.859375 L 12.140625 -1.453125 L 14.015625 -14.734375 L 16.3125 -14.734375 Z M 13.734375 0 "/></g></g></g><g fill="#01585c" fill-opacity="1"><g transform="translate(136.131516, 38.25)"><g/></g></g><g fill="#01585c" fill-opacity="1"><g transform="translate(152.929222, 38.25)"><g><path d="M 8.453125 -2.765625 L 13.65625 -19.28125 L 16.109375 -19.28125 L 9.65625 0 L 7.140625 0 L 0.6875 -19.28125 L 3.296875 -19.28125 Z M 8.453125 -2.765625 "/></g></g></g><g fill="#01585c" fill-opacity="1"><g transform="translate(169.726928, 38.25)"><g><path d="M 10.28125 -14.734375 L 10.28125 -1.859375 L 14.4375 -1.859375 L 14.4375 0 L 3.375 0 L 3.375 -1.859375 L 7.921875 -1.859375 L 7.921875 -12.875 L 3.515625 -12.875 L 3.515625 -14.734375 Z M 8.40625 -21.640625 C 8.925781 -21.640625 9.34375 -21.476562 9.65625 -21.15625 C 9.96875 -20.84375 10.125 -20.457031 10.125 -20 C 10.125 -19.53125 9.96875 -19.132812 9.65625 -18.8125 C 9.34375 -18.488281 8.925781 -18.328125 8.40625 -18.328125 C 7.90625 -18.328125 7.492188 -18.488281 7.171875 -18.8125 C 6.859375 -19.132812 6.703125 -19.53125 6.703125 -20 C 6.703125 -20.457031 6.859375 -20.84375 7.171875 -21.15625 C 7.492188 -21.476562 7.90625 -21.640625 8.40625 -21.640625 Z M 8.40625 -21.640625 "/></g></g></g><g fill="#01585c" fill-opacity="1"><g transform="translate(186.524634, 38.25)"><g><path d="M 2.953125 0 L 2.953125 -1.8125 L 5.25 -1.8125 L 5.25 -12.9375 L 2.953125 -12.9375 L 2.953125 -14.734375 L 7.046875 -14.734375 L 7.46875 -11.25 C 8.039062 -12.46875 8.734375 -13.40625 9.546875 -14.0625 C 10.359375 -14.726562 11.429688 -15.0625 12.765625 -15.0625 C 13.179688 -15.0625 13.546875 -15.03125 13.859375 -14.96875 C 14.179688 -14.90625 14.515625 -14.828125 14.859375 -14.734375 L 14.171875 -12.640625 C 13.859375 -12.722656 13.578125 -12.785156 13.328125 -12.828125 C 13.078125 -12.867188 12.785156 -12.890625 12.453125 -12.890625 C 11.328125 -12.890625 10.359375 -12.488281 9.546875 -11.6875 C 8.734375 -10.882812 8.085938 -9.671875 7.609375 -8.046875 L 7.609375 -1.8125 L 10.59375 -1.8125 L 10.59375 0 Z M 12.59375 -9.765625 L 12.59375 -12.96875 L 12.828125 -14.734375 L 14.859375 -14.734375 L 14.515625 -9.765625 Z M 12.59375 -9.765625 "/></g></g></g><g fill="#01585c" fill-opacity="1"><g transform="translate(203.32234, 38.25)"><g><path d="M 14.515625 -0.734375 C 14.015625 -0.398438 13.40625 -0.140625 12.6875 0.046875 C 11.96875 0.234375 11.257812 0.328125 10.5625 0.328125 C 8.976562 0.328125 7.753906 -0.0859375 6.890625 -0.921875 C 6.035156 -1.753906 5.609375 -2.820312 5.609375 -4.125 L 5.609375 -12.921875 L 2.21875 -12.921875 L 2.21875 -14.734375 L 5.609375 -14.734375 L 5.609375 -18.09375 L 7.96875 -18.375 L 7.96875 -14.734375 L 13.0625 -14.734375 L 12.78125 -12.921875 L 7.96875 -12.921875 L 7.96875 -4.15625 C 7.96875 -3.332031 8.179688 -2.707031 8.609375 -2.28125 C 9.046875 -1.851562 9.769531 -1.640625 10.78125 -1.640625 C 11.332031 -1.640625 11.835938 -1.703125 12.296875 -1.828125 C 12.765625 -1.960938 13.203125 -2.132812 13.609375 -2.34375 Z M 14.515625 -0.734375 "/></g></g></g></svg>